<?xml version="1.0" encoding="UTF-8" standalone="no"?>
<!DOCTYPE svg PUBLIC "-//W3C//DTD SVG 1.1//EN" "http://www.w3.org/Graphics/SVG/1.1/DTD/svg11.dtd">
<svg width="100%" height="100%" viewBox="0 0 3508 2481" version="1.1" xmlns="http://www.w3.org/2000/svg" xmlns:xlink="http://www.w3.org/1999/xlink" xml:space="preserve" xmlns:serif="http://www.serif.com/" style="fill-rule:evenodd;clip-rule:evenodd;stroke-linejoin:round;stroke-miterlimit:2;">
    <rect id="Artboard1" x="0" y="0" width="3507.87" height="2480.32" style="fill:none;"/>
    <g id="Artboard11" serif:id="Artboard1">
        <g id="logo2" transform="matrix(3.60423,0,0,3.60423,-2345.47,-5877.56)">
            <g>
                <path d="M1085.95,2106.68L885.819,1962.07L885.819,2130.59C885.819,2142.31 885.453,2150.98 884.72,2156.6C883.987,2162.22 881.911,2168.93 878.492,2176.75C871.653,2190.92 853.336,2198 823.539,2198C792.277,2198 773.227,2191.4 766.388,2178.22C762.48,2170.89 760.16,2164.42 759.427,2158.8C758.695,2153.18 758.328,2144.51 758.328,2132.79L758.328,1838.24C758.328,1827.01 761.259,1816.26 767.121,1806C772.982,1795.74 780.798,1787.81 790.567,1782.19C800.337,1776.57 811.816,1773.76 825.004,1773.76C838.193,1773.76 848.695,1776.69 856.511,1782.56L1170.84,2009.69L1082.21,2098.32L1085.95,2106.68Z" style="fill:rgb(0,98,255);fill-rule:nonzero;"/>
                <g transform="matrix(0.583979,-0.811769,0.811769,0.583979,-1500.14,2152.49)">
                    <path d="M1547.68,1947.89L1675.17,2027.47L1675.17,2154.59C1675.17,2166.31 1674.81,2174.98 1674.07,2180.6C1673.34,2186.22 1671.26,2192.93 1667.84,2200.75C1661.01,2214.92 1642.69,2222 1612.89,2222C1581.63,2222 1562.58,2215.4 1555.74,2202.22C1551.83,2194.89 1549.51,2188.42 1548.78,2182.8C1548.05,2177.18 1547.68,2168.51 1547.68,2156.79L1547.68,1947.89Z" style="fill:rgb(0,98,255);fill-rule:nonzero;"/>
                </g>
            </g>
            <g transform="matrix(-1,-3.19189e-16,3.19189e-16,-1,2274.77,3949.65)">
                <path d="M1085.95,2106.68L885.819,1962.07L885.819,2130.59C885.819,2142.31 885.453,2150.98 884.72,2156.6C883.987,2162.22 881.911,2168.93 878.492,2176.75C871.653,2190.92 853.336,2198 823.539,2198C792.277,2198 773.227,2191.4 766.388,2178.22C762.48,2170.89 760.16,2164.42 759.427,2158.8C758.695,2153.18 758.328,2144.51 758.328,2132.79L758.328,1838.24C758.328,1827.01 761.259,1816.26 767.121,1806C772.982,1795.74 780.798,1787.81 790.567,1782.19C800.337,1776.57 811.816,1773.76 825.004,1773.76C838.193,1773.76 848.695,1776.69 856.511,1782.56L1170.84,2009.69L1082.21,2098.32L1085.95,2106.68Z" style="fill:rgb(0,98,255);fill-rule:nonzero;"/>
                <g transform="matrix(0.583979,-0.811769,0.811769,0.583979,-1500.14,2152.49)">
                    <path d="M1547.68,1947.89L1675.17,2027.47L1675.17,2154.59C1675.17,2166.31 1674.81,2174.98 1674.07,2180.6C1673.34,2186.22 1671.26,2192.93 1667.84,2200.75C1661.01,2214.92 1642.69,2222 1612.89,2222C1581.63,2222 1562.58,2215.4 1555.74,2202.22C1551.83,2194.89 1549.51,2188.42 1548.78,2182.8C1548.05,2177.18 1547.68,2168.51 1547.68,2156.79L1547.68,1947.89Z" style="fill:rgb(0,98,255);fill-rule:nonzero;"/>
                </g>
            </g>
        </g>
        <g transform="matrix(1,0,0,1,64.3422,-160.51)">
            <circle cx="2284.5" cy="815.5" r="139.5" style="fill:rgb(0,98,255);"/>
        </g>
        <g transform="matrix(1,0,0,1,-1125.47,1089.53)">
            <circle cx="2284.5" cy="815.5" r="139.5" style="fill:rgb(0,98,255);"/>
        </g>
    </g>
</svg>
